<?xml version="1.0" standalone="no"?>
<!DOCTYPE svg PUBLIC "-//W3C//DTD SVG 1.1//EN"
"http://www.w3.org/Graphics/SVG/1.1/DTD/svg11.dtd">

<svg width="585" height="590" view_box="0 0 585 590"
xmlns="http://www.w3.org/2000/svg"
xmlns:link="http://www.w3.org/1999/xlink">\n\n<desc>Généré par Mocodo 2.3.7 le Sun, 28 Apr 2019 03:13:30</desc>

<rect id="frame" x="0" y="0" width="585" height="590" fill="#ffffff" stroke="none" stroke-width="0"/>

<!-- Association a_compose -->
<line x1="178" y1="303" x2="178" y2="177" stroke="#878787" stroke-width="2"/>
<text x="152.0" y="219" fill="#b2182b" font-family="Verdana" font-size="12">1,1</text>
<line x1="303" y1="68" x2="178" y2="177" stroke="#878787" stroke-width="2"/>
<text x="237" y="100.396838664" fill="#b2182b" font-family="Verdana" font-size="12">1,N</text>
<g id="association-a_compose">
	<path d="M 206 152 a 14 14 90 0 1 14 14 V 177 h -84 V 166 a 14 14 90 0 1 14 -14" fill="#bababa" stroke="#bababa" stroke-width="0"/>
	<path d="M 220 177.0 v 11 a 14 14 90 0 1 -14 14 H 150 a 14 14 90 0 1 -14 -14 V 177.0 H 84" fill="#e0e0e0" stroke="#e0e0e0" stroke-width="0"/>
	<rect x="136" y="152" width="84" height="50" fill="none" rx="14" stroke="#878787" stroke-width="2"/>
	<line x1="136" y1="177" x2="220" y2="177" stroke="#878787" stroke-width="1"/>
	<text x="143" y="169.7" fill="#000000" font-family="Verdana" font-size="12">a_compose</text>
</g>

<!-- Association avoir_genre -->
<line x1="535" y1="68" x2="429" y2="177" stroke="#878787" stroke-width="2"/>
<text x="468" y="109.091857395" fill="#b2182b" font-family="Verdana" font-size="12">1,1</text>
<line x1="429" y1="303" x2="429" y2="177" stroke="#878787" stroke-width="2"/>
<text x="434.0" y="261" fill="#b2182b" font-family="Verdana" font-size="12">1,N</text>
<g id="association-avoir_genre">
	<path d="M 459 152 a 14 14 90 0 1 14 14 V 177 h -88 V 166 a 14 14 90 0 1 14 -14" fill="#bababa" stroke="#bababa" stroke-width="0"/>
	<path d="M 473 177.0 v 11 a 14 14 90 0 1 -14 14 H 399 a 14 14 90 0 1 -14 -14 V 177.0 H 88" fill="#e0e0e0" stroke="#e0e0e0" stroke-width="0"/>
	<rect x="385" y="152" width="88" height="50" fill="none" rx="14" stroke="#878787" stroke-width="2"/>
	<line x1="385" y1="177" x2="473" y2="177" stroke="#878787" stroke-width="1"/>
	<text x="392" y="169.7" fill="#000000" font-family="Verdana" font-size="12">avoir_genre</text>
</g>

<!-- Association dans_playlist -->
<line x1="178" y1="303" x2="178" y2="429" stroke="#878787" stroke-width="2"/>
<text x="183.0" y="396" fill="#b2182b" font-family="Verdana" font-size="12">1,N</text>
<line x1="303" y1="547" x2="178" y2="429" stroke="#878787" stroke-width="2"/>
<text x="274.733892788" y="514" fill="#b2182b" font-family="Verdana" font-size="12">1,1</text>
<g id="association-dans_playlist">
	<path d="M 211 404 a 14 14 90 0 1 14 14 V 429 h -94 V 418 a 14 14 90 0 1 14 -14" fill="#bababa" stroke="#bababa" stroke-width="0"/>
	<path d="M 225 429.0 v 11 a 14 14 90 0 1 -14 14 H 145 a 14 14 90 0 1 -14 -14 V 429.0 H 94" fill="#e0e0e0" stroke="#e0e0e0" stroke-width="0"/>
	<rect x="131" y="404" width="94" height="50" fill="none" rx="14" stroke="#878787" stroke-width="2"/>
	<line x1="131" y1="429" x2="225" y2="429" stroke="#878787" stroke-width="1"/>
	<text x="138" y="421.7" fill="#000000" font-family="Verdana" font-size="12">dans_playlist</text>
</g>

<!-- Association avoir_playlist -->
<line x1="303" y1="429" x2="429" y2="429" stroke="#878787" stroke-width="2"/>
<text x="354" y="446.0" fill="#b2182b" font-family="Verdana" font-size="12">1,N</text>
<line x1="303" y1="547" x2="429" y2="429" stroke="#878787" stroke-width="2"/>
<text x="310.438225629" y="514" fill="#b2182b" font-family="Verdana" font-size="12">1,1</text>
<g id="association-avoir_playlist">
	<path d="M 463 404 a 14 14 90 0 1 14 14 V 429 h -96 V 418 a 14 14 90 0 1 14 -14" fill="#bababa" stroke="#bababa" stroke-width="0"/>
	<path d="M 477 429.0 v 11 a 14 14 90 0 1 -14 14 H 395 a 14 14 90 0 1 -14 -14 V 429.0 H 96" fill="#e0e0e0" stroke="#e0e0e0" stroke-width="0"/>
	<rect x="381" y="404" width="96" height="50" fill="none" rx="14" stroke="#878787" stroke-width="2"/>
	<line x1="381" y1="429" x2="477" y2="429" stroke="#878787" stroke-width="1"/>
	<text x="388" y="421.7" fill="#000000" font-family="Verdana" font-size="12">avoir_playlist</text>
</g>

<!-- Association a_publie -->
<line x1="535" y1="68" x2="429" y2="68" stroke="#878787" stroke-width="2"/>
<text x="468" y="60.0" fill="#b2182b" font-family="Verdana" font-size="12">1,1</text>
<line x1="303" y1="68" x2="429" y2="68" stroke="#878787" stroke-width="2"/>
<text x="347" y="85.0" fill="#b2182b" font-family="Verdana" font-size="12">1,N</text>
<g id="association-a_publie">
	<path d="M 448 43 a 14 14 90 0 1 14 14 V 68 h -66 V 57 a 14 14 90 0 1 14 -14" fill="#bababa" stroke="#bababa" stroke-width="0"/>
	<path d="M 462 68.0 v 11 a 14 14 90 0 1 -14 14 H 410 a 14 14 90 0 1 -14 -14 V 68.0 H 66" fill="#e0e0e0" stroke="#e0e0e0" stroke-width="0"/>
	<rect x="396" y="43" width="66" height="50" fill="none" rx="14" stroke="#878787" stroke-width="2"/>
	<line x1="396" y1="68" x2="462" y2="68" stroke="#878787" stroke-width="1"/>
	<text x="403" y="60.7" fill="#000000" font-family="Verdana" font-size="12">a_publie</text>
</g>

<!-- Association est_dans -->
<line x1="178" y1="303" x2="303" y2="177" stroke="#878787" stroke-width="2"/>
<text x="221" y="274.664839939" fill="#b2182b" font-family="Verdana" font-size="12">1,1</text>
<line x1="535" y1="68" x2="303" y2="177" stroke="#878787" stroke-width="2"/>
<text x="467" y="82.94090854" fill="#b2182b" font-family="Verdana" font-size="12">1,N</text>
<g id="association-est_dans">
	<path d="M 324 152 a 14 14 90 0 1 14 14 V 177 h -70 V 166 a 14 14 90 0 1 14 -14" fill="#bababa" stroke="#bababa" stroke-width="0"/>
	<path d="M 338 177.0 v 11 a 14 14 90 0 1 -14 14 H 282 a 14 14 90 0 1 -14 -14 V 177.0 H 70" fill="#e0e0e0" stroke="#e0e0e0" stroke-width="0"/>
	<rect x="268" y="152" width="70" height="50" fill="none" rx="14" stroke="#878787" stroke-width="2"/>
	<line x1="268" y1="177" x2="338" y2="177" stroke="#878787" stroke-width="1"/>
	<text x="275" y="169.7" fill="#000000" font-family="Verdana" font-size="12">est_dans</text>
</g>

<!-- Association a_contribue -->
<line x1="303" y1="68" x2="303" y2="303" stroke="#878787" stroke-width="2"/>
<text x="308.0" y="136" fill="#b2182b" font-family="Verdana" font-size="12">1,1</text>
<line x1="303" y1="429" x2="303" y2="303" stroke="#878787" stroke-width="2"/>
<text x="308.0" y="362" fill="#b2182b" font-family="Verdana" font-size="12">1,N</text>
<g id="association-a_contribue">
	<path d="M 332 278 a 14 14 90 0 1 14 14 V 303 h -86 V 292 a 14 14 90 0 1 14 -14" fill="#bababa" stroke="#bababa" stroke-width="0"/>
	<path d="M 346 303.0 v 11 a 14 14 90 0 1 -14 14 H 274 a 14 14 90 0 1 -14 -14 V 303.0 H 86" fill="#e0e0e0" stroke="#e0e0e0" stroke-width="0"/>
	<rect x="260" y="278" width="86" height="50" fill="none" rx="14" stroke="#878787" stroke-width="2"/>
	<line x1="260" y1="303" x2="346" y2="303" stroke="#878787" stroke-width="1"/>
	<text x="267" y="295.7" fill="#000000" font-family="Verdana" font-size="12">a_contribue</text>
</g>

<!-- Association origine -->
<line x1="54" y1="68" x2="178" y2="68" stroke="#878787" stroke-width="2"/>
<text x="93" y="85.0" fill="#b2182b" font-family="Verdana" font-size="12">1,N</text>
<line x1="303" y1="68" x2="178" y2="68" stroke="#878787" stroke-width="2"/>
<text x="238" y="60.0" fill="#b2182b" font-family="Verdana" font-size="12">1,1</text>
<g id="association-origine">
	<path d="M 192 43 a 14 14 90 0 1 14 14 V 68 h -56 V 57 a 14 14 90 0 1 14 -14" fill="#bababa" stroke="#bababa" stroke-width="0"/>
	<path d="M 206 68.0 v 11 a 14 14 90 0 1 -14 14 H 164 a 14 14 90 0 1 -14 -14 V 68.0 H 56" fill="#e0e0e0" stroke="#e0e0e0" stroke-width="0"/>
	<rect x="150" y="43" width="56" height="50" fill="none" rx="14" stroke="#878787" stroke-width="2"/>
	<line x1="150" y1="68" x2="206" y2="68" stroke="#878787" stroke-width="1"/>
	<text x="157" y="60.7" fill="#000000" font-family="Verdana" font-size="12">origine</text>
</g>

<!-- Association etre_classee -->
<line x1="178" y1="303" x2="54" y2="429" stroke="#878787" stroke-width="2"/>
<text x="113" y="340.603906553" fill="#b2182b" font-family="Verdana" font-size="12">1,N</text>
<line x1="178" y1="547" x2="54" y2="429" stroke="#878787" stroke-width="2"/>
<text x="140.448041779" y="505" fill="#b2182b" font-family="Verdana" font-size="12">1,N</text>
<g id="association-etre_classee">
	<path d="M 85 404 a 14 14 90 0 1 14 14 V 429 h -90 V 418 a 14 14 90 0 1 14 -14" fill="#bababa" stroke="#bababa" stroke-width="0"/>
	<path d="M 99 429.0 v 11 a 14 14 90 0 1 -14 14 H 23 a 14 14 90 0 1 -14 -14 V 429.0 H 90" fill="#e0e0e0" stroke="#e0e0e0" stroke-width="0"/>
	<rect x="9" y="404" width="90" height="50" fill="none" rx="14" stroke="#878787" stroke-width="2"/>
	<line x1="9" y1="429" x2="99" y2="429" stroke="#878787" stroke-width="1"/>
	<text x="16" y="421.7" fill="#000000" font-family="Verdana" font-size="12">etre_classee</text>
</g>

<!-- Entity ALBUM -->
<g id="entity-ALBUM">
	<g id="frame-ALBUM">
		<rect x="494" y="9" width="82" height="25" fill="#f4a582" stroke="#f4a582" stroke-width="0"/>
		<rect x="494" y="34.0" width="82" height="93" fill="#fddbc7" stroke="#fddbc7" stroke-width="0"/>
		<rect x="494" y="9" width="82" height="118" fill="none" stroke="#d6604d" stroke-width="2"/>
		<line x1="494" y1="34" x2="576" y2="34" stroke="#d6604d" stroke-width="1"/>
	</g>
	<text x="513" y="26.7" fill="#000000" font-family="Verdana" font-size="12">ALBUM</text>
	<text x="499" y="51.7" fill="#000000" font-family="Verdana" font-size="12">idAlbum</text>
	<line x1="499" y1="54" x2="549" y2="54" stroke="#000000" stroke-width="1"/>
	<text x="499" y="68.8" fill="#000000" font-family="Verdana" font-size="12">nomAlbum</text>
	<text x="499" y="85.8" fill="#000000" font-family="Verdana" font-size="12">coverAlbum</text>
	<text x="499" y="102.8" fill="#000000" font-family="Verdana" font-size="12">date_sortie</text>
	<text x="499" y="119.8" fill="#000000" font-family="Verdana" font-size="12">tracklist</text>
</g>

<!-- Entity ARTISTE -->
<g id="entity-ARTISTE">
	<g id="frame-ARTISTE">
		<rect x="264" y="17" width="78" height="25" fill="#f4a582" stroke="#f4a582" stroke-width="0"/>
		<rect x="264" y="42.0" width="78" height="77" fill="#fddbc7" stroke="#fddbc7" stroke-width="0"/>
		<rect x="264" y="17" width="78" height="102" fill="none" stroke="#d6604d" stroke-width="2"/>
		<line x1="264" y1="42" x2="342" y2="42" stroke="#d6604d" stroke-width="1"/>
	</g>
	<text x="276" y="34.7" fill="#000000" font-family="Verdana" font-size="12">ARTISTE</text>
	<text x="269" y="59.7" fill="#000000" font-family="Verdana" font-size="12">idArtiste</text>
	<line x1="269" y1="62" x2="320" y2="62" stroke="#000000" stroke-width="1"/>
	<text x="269" y="76.8" fill="#000000" font-family="Verdana" font-size="12">nomArtiste</text>
	<text x="269" y="93.8" fill="#000000" font-family="Verdana" font-size="12">bio</text>
	<text x="269" y="110.8" fill="#000000" font-family="Verdana" font-size="12">imgArtiste</text>
</g>

<!-- Entity PLAYLIST -->
<g id="entity-PLAYLIST">
	<g id="frame-PLAYLIST">
		<rect x="269" y="522" width="68" height="25" fill="#f4a582" stroke="#f4a582" stroke-width="0"/>
		<rect x="269" y="547.0" width="68" height="25" fill="#fddbc7" stroke="#fddbc7" stroke-width="0"/>
		<rect x="269" y="522" width="68" height="50" fill="none" stroke="#d6604d" stroke-width="2"/>
		<line x1="269" y1="547" x2="337" y2="547" stroke="#d6604d" stroke-width="1"/>
	</g>
	<text x="274" y="539.7" fill="#000000" font-family="Verdana" font-size="12">PLAYLIST</text>
	<text x="274" y="564.8" fill="#000000" font-family="Verdana" font-size="12">idPlaylist</text>
	<line x1="274" y1="567" x2="328" y2="567" stroke="#000000" stroke-width="1"/>
</g>

<!-- Entity CLASSEMENT -->
<g id="entity-CLASSEMENT">
	<g id="frame-CLASSEMENT">
		<rect x="124" y="513" width="108" height="25" fill="#f4a582" stroke="#f4a582" stroke-width="0"/>
		<rect x="124" y="538.0" width="108" height="43" fill="#fddbc7" stroke="#fddbc7" stroke-width="0"/>
		<rect x="124" y="513" width="108" height="68" fill="none" stroke="#d6604d" stroke-width="2"/>
		<line x1="124" y1="538" x2="232" y2="538" stroke="#d6604d" stroke-width="1"/>
	</g>
	<text x="137" y="530.7" fill="#000000" font-family="Verdana" font-size="12">CLASSEMENT</text>
	<text x="129" y="555.8" fill="#000000" font-family="Verdana" font-size="12">idClassement</text>
	<line x1="129" y1="558" x2="210" y2="558" stroke="#000000" stroke-width="1"/>
	<text x="129" y="572.8" fill="#000000" font-family="Verdana" font-size="12">nomClassement</text>
</g>

<!-- Entity PAYS -->
<g id="entity-PAYS">
	<g id="frame-PAYS">
		<rect x="20" y="34" width="68" height="25" fill="#f4a582" stroke="#f4a582" stroke-width="0"/>
		<rect x="20" y="59.0" width="68" height="43" fill="#fddbc7" stroke="#fddbc7" stroke-width="0"/>
		<rect x="20" y="34" width="68" height="68" fill="none" stroke="#d6604d" stroke-width="2"/>
		<line x1="20" y1="59" x2="88" y2="59" stroke="#d6604d" stroke-width="1"/>
	</g>
	<text x="38" y="51.7" fill="#000000" font-family="Verdana" font-size="12">PAYS</text>
	<text x="25" y="76.8" fill="#000000" font-family="Verdana" font-size="12">codePays</text>
	<line x1="25" y1="79" x2="82" y2="79" stroke="#000000" stroke-width="1"/>
	<text x="25" y="93.8" fill="#000000" font-family="Verdana" font-size="12">nom</text>
</g>

<!-- Entity CLIENT -->
<g id="entity-CLIENT">
	<g id="frame-CLIENT">
		<rect x="257" y="370" width="92" height="25" fill="#f4a582" stroke="#f4a582" stroke-width="0"/>
		<rect x="257" y="395.0" width="92" height="93" fill="#fddbc7" stroke="#fddbc7" stroke-width="0"/>
		<rect x="257" y="370" width="92" height="118" fill="none" stroke="#d6604d" stroke-width="2"/>
		<line x1="257" y1="395" x2="349" y2="395" stroke="#d6604d" stroke-width="1"/>
	</g>
	<text x="280" y="387.7" fill="#000000" font-family="Verdana" font-size="12">CLIENT</text>
	<text x="262" y="412.7" fill="#000000" font-family="Verdana" font-size="12">mailClient</text>
	<line x1="262" y1="415" x2="323" y2="415" stroke="#000000" stroke-width="1"/>
	<text x="262" y="429.8" fill="#000000" font-family="Verdana" font-size="12">nomClient</text>
	<text x="262" y="446.8" fill="#000000" font-family="Verdana" font-size="12">prenomClient</text>
	<text x="262" y="463.8" fill="#000000" font-family="Verdana" font-size="12">mdpClient</text>
	<text x="262" y="480.8" fill="#000000" font-family="Verdana" font-size="12">nbContrib</text>
</g>

<!-- Entity MUSIQUE -->
<g id="entity-MUSIQUE">
	<g id="frame-MUSIQUE">
		<rect x="140" y="227" width="76" height="25" fill="#f4a582" stroke="#f4a582" stroke-width="0"/>
		<rect x="140" y="252.0" width="76" height="127" fill="#fddbc7" stroke="#fddbc7" stroke-width="0"/>
		<rect x="140" y="227" width="76" height="152" fill="none" stroke="#d6604d" stroke-width="2"/>
		<line x1="140" y1="252" x2="216" y2="252" stroke="#d6604d" stroke-width="1"/>
	</g>
	<text x="148" y="244.7" fill="#000000" font-family="Verdana" font-size="12">MUSIQUE</text>
	<text x="145" y="269.7" fill="#000000" font-family="Verdana" font-size="12">idMusique</text>
	<line x1="145" y1="272" x2="206" y2="272" stroke="#000000" stroke-width="1"/>
	<text x="145" y="286.7" fill="#000000" font-family="Verdana" font-size="12">titre</text>
	<text x="145" y="303.8" fill="#000000" font-family="Verdana" font-size="12">duree</text>
	<text x="145" y="320.8" fill="#000000" font-family="Verdana" font-size="12">numAlbum</text>
	<text x="145" y="337.8" fill="#000000" font-family="Verdana" font-size="12">rank</text>
	<text x="145" y="354.8" fill="#000000" font-family="Verdana" font-size="12">isrc</text>
	<text x="145" y="371.8" fill="#000000" font-family="Verdana" font-size="12">nbEcoutes</text>
</g>

<!-- Entity GENRE -->
<g id="entity-GENRE">
	<g id="frame-GENRE">
		<rect x="392" y="269" width="74" height="25" fill="#f4a582" stroke="#f4a582" stroke-width="0"/>
		<rect x="392" y="294.0" width="74" height="43" fill="#fddbc7" stroke="#fddbc7" stroke-width="0"/>
		<rect x="392" y="269" width="74" height="68" fill="none" stroke="#d6604d" stroke-width="2"/>
		<line x1="392" y1="294" x2="466" y2="294" stroke="#d6604d" stroke-width="1"/>
	</g>
	<text x="407" y="286.7" fill="#000000" font-family="Verdana" font-size="12">GENRE</text>
	<text x="397" y="311.8" fill="#000000" font-family="Verdana" font-size="12">idGenres</text>
	<line x1="397" y1="314" x2="451" y2="314" stroke="#000000" stroke-width="1"/>
	<text x="397" y="328.8" fill="#000000" font-family="Verdana" font-size="12">nomGenre</text>
</g>
</svg>